<svg width="59" height="59" viewBox="0 0 59 59" fill="none" xmlns="http://www.w3.org/2000/svg">
<g clip-path="url(#clip0_1_77)">
<path d="M11.2051 17.2084L22.7617 5.64933C23.2509 5.16258 23.8925 4.91675 24.5342 4.91675C26.0411 4.91675 27.0417 6.15821 27.0417 7.44637C27.0417 8.06096 26.8155 8.68537 26.3066 9.19425L18.2925 17.2084H11.2051ZM40.7075 17.2084H47.7949L36.2383 5.64933C35.7491 5.16258 35.1075 4.91675 34.4658 4.91675C32.9589 4.91675 31.9583 6.15821 31.9583 7.44637C31.9583 8.06096 32.1845 8.68537 32.6934 9.19425L40.7075 17.2084ZM49.8107 27.0417L49.7714 27.1425L40.9263 49.1668H18.0737L9.23104 27.1376L9.19171 27.0417H49.8107ZM59 22.1251H0V27.0417H1.58071C2.89346 27.0417 4.09067 27.7891 4.66838 28.9691L14.75 54.0834H44.25L54.3341 28.974C54.9069 27.7915 56.109 27.0417 57.4217 27.0417H59V22.1251Z" fill="#14017D"/>
</g>
<defs>
<clipPath id="clip0_1_77">
<rect width="59" height="59" fill="white"/>
</clipPath>
</defs>
</svg>
