<svg width="100" height="100" viewBox="0 0 100 100" fill="none" xmlns="http://www.w3.org/2000/svg">
<path d="M50 8.70819C72.975 8.70819 91.6667 27.1684 91.6667 49.859C91.6667 72.5495 72.975 91.0098 50 91.0098C27.025 91.0098 8.33333 72.5495 8.33333 49.859C8.33333 27.1684 27.025 8.70819 50 8.70819ZM50 0.478027C22.3875 0.478027 0 22.5884 0 49.859C0 77.1296 22.3875 99.2399 50 99.2399C77.6125 99.2399 100 77.1296 100 49.859C100 22.5884 77.6125 0.478027 50 0.478027ZM41.6667 41.6288H33.3333V49.859H41.6667V74.5495H54.1667V49.859H61.75L62.5 41.6288H54.1667V38.201C54.1667 36.234 54.5667 35.4562 56.4917 35.4562H62.5V25.1685H52.4833C44.9917 25.1685 41.6667 28.4276 41.6667 34.6661V41.6288Z" fill="#14017D"/>
</svg>
