<svg width="100" height="100" viewBox="0 0 100 100" fill="none" xmlns="http://www.w3.org/2000/svg">
<path d="M50 8.70819C72.975 8.70819 91.6667 27.1684 91.6667 49.859C91.6667 72.5495 72.975 91.0098 50 91.0098C27.025 91.0098 8.33333 72.5495 8.33333 49.859C8.33333 27.1684 27.025 8.70819 50 8.70819ZM50 0.478027C22.3875 0.478027 0 22.5884 0 49.859C0 77.1296 22.3875 99.2399 50 99.2399C77.6125 99.2399 100 77.1296 100 49.859C100 22.5884 77.6125 0.478027 50 0.478027ZM50 29.621C56.675 29.621 57.4667 29.6457 60.1042 29.7651C66.8833 30.0696 70.0417 33.2423 70.3542 39.884C70.4708 42.4889 70.4958 43.2666 70.4958 49.859C70.4958 56.4513 70.4708 57.2332 70.3542 59.8339C70.0417 66.4716 66.8875 69.6525 60.1042 69.957C57.4667 70.0723 56.6792 70.1011 50 70.1011C43.325 70.1011 42.5333 70.0764 39.9 69.957C33.1083 69.6484 29.9625 66.4633 29.65 59.8339C29.5333 57.2332 29.5042 56.4513 29.5042 49.859C29.5042 43.2666 29.5333 42.4848 29.65 39.884C29.9583 33.2382 33.1167 30.0655 39.9 29.7609C42.5333 29.6416 43.325 29.621 50 29.621ZM50 25.1685C43.2083 25.1685 42.3625 25.1973 39.6917 25.3208C30.6083 25.7323 25.5667 30.7074 25.15 39.6783C25.0292 42.316 25 43.1555 25 49.859C25 56.5666 25.0292 57.406 25.15 60.0397C25.5667 69.0065 30.6083 73.9898 39.6917 74.4013C42.3625 74.5207 43.2083 74.5495 50 74.5495C56.7917 74.5495 57.6417 74.5207 60.3125 74.4013C69.3792 73.9898 74.4417 69.0147 74.85 60.0397C74.9708 57.406 75 56.5666 75 49.859C75 43.1555 74.9708 42.316 74.85 39.6783C74.4417 30.7197 69.3958 25.7282 60.3125 25.3208C57.6417 25.1973 56.7917 25.1685 50 25.1685ZM50 37.1804C42.9125 37.1804 37.1625 42.8551 37.1625 49.859C37.1625 56.8629 42.9125 62.5376 50 62.5376C57.0875 62.5376 62.8375 56.8629 62.8375 49.859C62.8375 42.8592 57.0875 37.1804 50 37.1804ZM50 58.0892C45.3958 58.0892 41.6667 54.4061 41.6667 49.859C41.6667 45.3159 45.3958 41.6288 50 41.6288C54.6 41.6288 58.3375 45.3118 58.3375 49.859C58.3375 54.4061 54.6 58.0892 50 58.0892ZM63.3417 33.7196C61.6875 33.7196 60.3417 35.0447 60.3417 36.6825C60.3417 38.3162 61.6833 39.6454 63.3417 39.6454C65 39.6454 66.3458 38.3203 66.3458 36.6825C66.3458 35.0447 65.0042 33.7196 63.3417 33.7196Z" fill="#14017D"/>
</svg>
