<svg xmlns="http://www.w3.org/2000/svg" aria-hidden="true" style="position:absolute;width:0;height:0;overflow:hidden">
  <defs>
    <symbol id="facebook" viewBox="0 0 32 32">
      <path d="M16 2.787c7.352 0 13.333 5.907 13.333 13.168S23.352 29.123 16 29.123 2.667 23.216 2.667 15.955C2.667 8.694 8.648 2.787 16 2.787zm0-2.634C7.164.153 0 7.228 0 15.955s7.164 15.802 16 15.802 16-7.075 16-15.802S24.836.153 16 .153zm-2.667 13.168h-2.667v2.634h2.667v7.901h4v-7.901h2.427l.24-2.634h-2.667v-1.097c0-.629.128-.878.744-.878H20V8.054h-3.205c-2.397 0-3.461 1.043-3.461 3.039v2.228z"/>
    </symbol>
    <symbol id="telegram-5" viewBox="0 0 32 32">
      <path d="M16 .153C7.164.153 0 7.228 0 15.955s7.164 15.802 16 15.802 16-7.075 16-15.802S24.836.153 16 .153zm0 2.634c7.352 0 13.333 5.907 13.333 13.168S23.352 29.123 16 29.123 2.667 23.216 2.667 15.955C2.667 8.694 8.648 2.787 16 2.787zm3.589 19.606c.215.151.491.188.737.096s.429-.3.483-.553c.58-2.689 1.985-9.496 2.512-11.941a.51.51 0 0 0-.172-.499.544.544 0 0 0-.532-.092c-2.795 1.022-11.404 4.211-14.923 5.498-.224.082-.369.294-.361.527s.167.435.395.502c1.579.466 3.651 1.115 3.651 1.115s.967 2.888 1.472 4.356a.58.58 0 0 0 .942.242l2.064-1.924s2.381 1.724 3.732 2.673zm-7.34-5.713 1.12 3.646.248-2.31 6.789-6.048a.18.18 0 0 0 .023-.248.191.191 0 0 0-.251-.042l-7.929 5.001z"/>
    </symbol>
    <symbol id="Instagram" viewBox="0 0 32 32">
      <path d="M16 2.787c7.352 0 13.333 5.907 13.333 13.168S23.352 29.123 16 29.123 2.667 23.216 2.667 15.955C2.667 8.694 8.648 2.787 16 2.787zm0-2.634C7.164.153 0 7.228 0 15.955s7.164 15.802 16 15.802 16-7.075 16-15.802S24.836.153 16 .153zm0 9.326c2.136 0 2.389.008 3.233.046 2.169.097 3.18 1.113 3.28 3.238.037.834.045 1.082.045 3.192s-.008 2.36-.045 3.192c-.1 2.124-1.109 3.142-3.28 3.239-.844.037-1.096.046-3.233.046-2.136 0-2.389-.008-3.232-.046-2.173-.099-3.18-1.118-3.28-3.239-.037-.832-.047-1.082-.047-3.192s.009-2.36.047-3.192c.099-2.127 1.109-3.142 3.28-3.239.843-.038 1.096-.045 3.232-.045zm0-1.425c-2.173 0-2.444.009-3.299.049-2.907.132-4.52 1.724-4.653 4.594C8.009 13.541 8 13.81 8 15.955c0 2.146.009 2.415.048 3.258.133 2.869 1.747 4.464 4.653 4.596.855.038 1.125.047 3.299.047s2.445-.009 3.3-.047c2.901-.132 4.521-1.724 4.652-4.596.039-.843.048-1.111.048-3.258 0-2.145-.009-2.414-.048-3.258-.131-2.867-1.745-4.464-4.652-4.594-.855-.04-1.127-.049-3.3-.049zm0 3.844c-2.268 0-4.108 1.816-4.108 4.057s1.84 4.057 4.108 4.057 4.108-1.816 4.108-4.057c0-2.24-1.84-4.057-4.108-4.057zm0 6.691c-1.473 0-2.667-1.179-2.667-2.634 0-1.454 1.193-2.634 2.667-2.634 1.472 0 2.668 1.179 2.668 2.634S17.472 18.589 16 18.589zm4.269-7.799a.955.955 0 0 0-.96.948c0 .523.429.948.96.948s.961-.424.961-.948-.429-.948-.961-.948z"/>
    </symbol>
  </defs>
</svg>