<svg xmlns="http://www.w3.org/2000/svg" aria-hidden="true" style="position:absolute;width:0;height:0;overflow:hidden">
  <defs>
    <symbol id="facebook" viewBox="0 0 32 32">
      <path d="M16 2.787c7.352 0 13.333 5.907 13.333 13.168S23.352 29.123 16 29.123 2.667 23.216 2.667 15.955C2.667 8.694 8.648 2.787 16 2.787zm0-2.634C7.164.153 0 7.228 0 15.955s7.164 15.802 16 15.802 16-7.075 16-15.802S24.836.153 16 .153zm-2.667 13.168h-2.667v2.634h2.667v7.901h4v-7.901h2.427l.24-2.634h-2.667v-1.097c0-.629.128-.878.744-.878H20V8.054h-3.205c-2.397 0-3.461 1.043-3.461 3.039v2.228z"/>
    </symbol>
    <symbol id="telegram-5" viewBox="0 0 32 32">
      <path d="M16 .153C7.164.153 0 7.228 0 15.955s7.164 15.802 16 15.802 16-7.075 16-15.802S24.836.153 16 .153zm0 2.634c7.352 0 13.333 5.907 13.333 13.168S23.352 29.123 16 29.123 2.667 23.216 2.667 15.955C2.667 8.694 8.648 2.787 16 2.787zm3.589 19.606c.215.151.491.188.737.096s.429-.3.483-.553c.58-2.689 1.985-9.496 2.512-11.941a.51.51 0 0 0-.172-.499.544.544 0 0 0-.532-.092c-2.795 1.022-11.404 4.211-14.923 5.498-.224.082-.369.294-.361.527s.167.435.395.502c1.579.466 3.651 1.115 3.651 1.115s.967 2.888 1.472 4.356a.58.58 0 0 0 .942.242l2.064-1.924s2.381 1.724 3.732 2.673zm-7.34-5.713 1.12 3.646.248-2.31 6.789-6.048a.18.18 0 0 0 .023-.248.191.191 0 0 0-.251-.042l-7.929 5.001z"/>
    </symbol>
    <symbol id="Instagram" viewBox="0 0 32 32">
      <path d="M16 2.787c7.352 0 13.333 5.907 13.333 13.168S23.352 29.123 16 29.123 2.667 23.216 2.667 15.955C2.667 8.694 8.648 2.787 16 2.787zm0-2.634C7.164.153 0 7.228 0 15.955s7.164 15.802 16 15.802 16-7.075 16-15.802S24.836.153 16 .153zm0 9.326c2.136 0 2.389.008 3.233.046 2.169.097 3.18 1.113 3.28 3.238.037.834.045 1.082.045 3.192s-.008 2.36-.045 3.192c-.1 2.124-1.109 3.142-3.28 3.239-.844.037-1.096.046-3.233.046-2.136 0-2.389-.008-3.232-.046-2.173-.099-3.18-1.118-3.28-3.239-.037-.832-.047-1.082-.047-3.192s.009-2.36.047-3.192c.099-2.127 1.109-3.142 3.28-3.239.843-.038 1.096-.045 3.232-.045zm0-1.425c-2.173 0-2.444.009-3.299.049-2.907.132-4.52 1.724-4.653 4.594C8.009 13.541 8 13.81 8 15.955c0 2.146.009 2.415.048 3.258.133 2.869 1.747 4.464 4.653 4.596.855.038 1.125.047 3.299.047s2.445-.009 3.3-.047c2.901-.132 4.521-1.724 4.652-4.596.039-.843.048-1.111.048-3.258 0-2.145-.009-2.414-.048-3.258-.131-2.867-1.745-4.464-4.652-4.594-.855-.04-1.127-.049-3.3-.049zm0 3.844c-2.268 0-4.108 1.816-4.108 4.057s1.84 4.057 4.108 4.057 4.108-1.816 4.108-4.057c0-2.24-1.84-4.057-4.108-4.057zm0 6.691c-1.473 0-2.667-1.179-2.667-2.634 0-1.454 1.193-2.634 2.667-2.634 1.472 0 2.668 1.179 2.668 2.634S17.472 18.589 16 18.589zm4.269-7.799a.955.955 0 0 0-.96.948c0 .523.429.948.96.948s.961-.424.961-.948-.429-.948-.961-.948z"/>
    </symbol>
    <symbol id="cross" viewBox="0 0 32 32">
      <path d="M31.708 25.708c-0-0-0-0-0-0l-9.708-9.708 9.708-9.708c0-0 0-0 0-0 0.105-0.105 0.18-0.227 0.229-0.357 0.133-0.356 0.057-0.771-0.229-1.057l-4.586-4.586c-0.286-0.286-0.702-0.361-1.057-0.229-0.13 0.048-0.252 0.124-0.357 0.228 0 0-0 0-0 0l-9.708 9.708-9.708-9.708c-0-0-0-0-0-0-0.105-0.104-0.227-0.18-0.357-0.228-0.356-0.133-0.771-0.057-1.057 0.229l-4.586 4.586c-0.286 0.286-0.361 0.702-0.229 1.057 0.049 0.13 0.124 0.252 0.229 0.357 0 0 0 0 0 0l9.708 9.708-9.708 9.708c-0 0-0 0-0 0-0.104 0.105-0.18 0.227-0.229 0.357-0.133 0.355-0.057 0.771 0.229 1.057l4.586 4.586c0.286 0.286 0.702 0.361 1.057 0.229 0.13-0.049 0.252-0.124 0.357-0.229 0-0 0-0 0-0l9.708-9.708 9.708 9.708c0 0 0 0 0 0 0.105 0.105 0.227 0.18 0.357 0.229 0.356 0.133 0.771 0.057 1.057-0.229l4.586-4.586c0.286-0.286 0.362-0.702 0.229-1.057-0.049-0.13-0.124-0.252-0.229-0.357z"></path>
    </symbol>
    <symbol id="witch" viewBox="0 0 41 32">
    <path d="M14.938 0.044c0 0.029 0.016 0.051 0.032 0.051 0.019 0 0.032-0.013 0.032-0.029 0-0.019-0.013-0.041-0.032-0.051-0.016-0.009-0.032 0.003-0.032 0.029z"></path>
    <path d="M20.186 2.379c-0.009 0.019 0.003 0.041 0.029 0.051 0.029 0.010 0.051 0.054 0.051 0.095 0 0.044 0.029 0.117 0.063 0.168 0.063 0.082 0.067 0.12 0.057 0.926-0.009 0.752-0.016 0.847-0.063 0.898-0.035 0.032-0.057 0.101-0.057 0.165s-0.019 0.133-0.044 0.155c-0.022 0.025-0.054 0.124-0.063 0.219-0.013 0.098-0.038 0.184-0.054 0.193-0.016 0.013-0.029 0.070-0.029 0.13 0 0.070-0.022 0.127-0.063 0.162-0.035 0.032-0.063 0.089-0.063 0.13 0 0.038-0.022 0.079-0.048 0.089-0.025 0.013-0.048 0.041-0.048 0.063 0 0.025-0.022 0.054-0.048 0.063-0.025 0.013-0.048 0.038-0.048 0.063 0 0.022-0.038 0.051-0.086 0.063-0.051 0.010-0.117 0.029-0.152 0.044s-0.12 0.035-0.187 0.044c-0.070 0.010-0.133 0.032-0.146 0.051-0.013 0.022-0.086 0.044-0.162 0.054s-0.165 0.044-0.197 0.076c-0.032 0.035-0.095 0.060-0.143 0.060s-0.114 0.022-0.146 0.048c-0.035 0.025-0.086 0.048-0.114 0.048s-0.111 0.057-0.187 0.127c-0.076 0.073-0.178 0.149-0.228 0.178-0.051 0.025-0.092 0.060-0.092 0.076 0 0.019-0.016 0.032-0.035 0.032-0.067 0-0.349 0.308-0.377 0.415-0.054 0.187-0.044 0.219 0.079 0.219 0.076 0 0.111-0.016 0.111-0.044 0-0.025 0.067-0.079 0.152-0.12 0.082-0.041 0.162-0.092 0.174-0.111 0.013-0.022 0.057-0.041 0.095-0.041s0.089-0.029 0.111-0.063c0.029-0.044 0.073-0.063 0.162-0.063 0.070 0 0.14-0.019 0.162-0.048 0.029-0.035 0.105-0.048 0.273-0.048 0.225 0 0.238 0.003 0.273 0.082 0.035 0.076 0.032 0.092-0.032 0.133-0.038 0.025-0.070 0.070-0.070 0.098 0 0.070-0.060 0.13-0.127 0.13-0.079 0-0.501 0.425-0.526 0.53-0.013 0.048-0.035 0.108-0.054 0.127-0.016 0.022-0.070 0.124-0.12 0.222-0.117 0.238-0.152 0.289-0.27 0.393-0.054 0.048-0.19 0.184-0.308 0.298s-0.26 0.228-0.323 0.257c-0.060 0.025-0.111 0.060-0.111 0.076 0 0.048-0.086 0.038-0.193-0.019-0.070-0.035-0.108-0.038-0.136-0.016-0.051 0.044-0.203-0.022-0.228-0.101-0.013-0.038-0.051-0.054-0.143-0.054-0.067 0-0.124 0.013-0.124 0.029s0.057 0.089 0.124 0.159c0.111 0.117 0.14 0.13 0.276 0.13h0.149l-0.022 0.197c-0.016 0.159-0.038 0.216-0.111 0.295-0.076 0.079-0.092 0.13-0.111 0.33-0.013 0.14-0.041 0.26-0.067 0.289s-0.048 0.063-0.048 0.076c0 0.063-0.301 0.406-0.387 0.441-0.032 0.009-0.057 0.035-0.057 0.051s-0.041 0.073-0.095 0.124c-0.095 0.095-0.12 0.178-0.067 0.209 0.016 0.009 0.035-0.003 0.048-0.029 0.009-0.025 0.054-0.048 0.098-0.048s0.108-0.029 0.143-0.063c0.035-0.035 0.102-0.063 0.149-0.063 0.149 0 0.352-0.101 0.374-0.187 0.009-0.041 0.054-0.101 0.095-0.136 0.041-0.032 0.092-0.108 0.111-0.165 0.019-0.060 0.054-0.117 0.079-0.127s0.048-0.032 0.048-0.051c0-0.048 0.12-0.159 0.171-0.159 0.076 0 0.146-0.038 0.146-0.076 0-0.057 0.396-0.127 0.473-0.082 0.035 0.016 0.098 0.032 0.143 0.032 0.102 0 0.133 0.054 0.070 0.124-0.029 0.032-0.051 0.082-0.051 0.117s-0.044 0.101-0.102 0.152c-0.13 0.111-0.086 0.146 0.19 0.146 0.155 0 0.209 0.013 0.26 0.063 0.073 0.073 0.079 0.111 0.025 0.178-0.111 0.13-0.206 0.203-0.273 0.203-0.038 0-0.079 0.022-0.089 0.048-0.013 0.025-0.038 0.048-0.063 0.048-0.022 0-0.067 0.035-0.095 0.079-0.029 0.041-0.076 0.086-0.111 0.095-0.086 0.029-0.238 0.178-0.263 0.26-0.013 0.035-0.12 0.168-0.241 0.292-0.19 0.193-0.238 0.225-0.333 0.225-0.067 0-0.13 0.022-0.165 0.060-0.063 0.067-0.273 0.162-0.355 0.162-0.029 0-0.092 0.022-0.14 0.048-0.051 0.025-0.206 0.057-0.349 0.067-0.181 0.016-0.273 0.038-0.298 0.073-0.032 0.044-0.038 0.044-0.057-0.006-0.032-0.073-0.098-0.070-0.12 0.009-0.009 0.035-0.044 0.063-0.079 0.063-0.101 0-0.282 0.089-0.384 0.187-0.057 0.057-0.146 0.101-0.222 0.114-0.073 0.013-0.136 0.032-0.146 0.048-0.009 0.013-0.079 0.035-0.155 0.044-0.076 0.013-0.159 0.044-0.178 0.067-0.025 0.032-0.101 0.048-0.222 0.048-0.117 0-0.197 0.016-0.219 0.044-0.082 0.098-0.311 0.152-0.58 0.136-0.308-0.019-0.641-0.086-0.698-0.143-0.022-0.022-0.13-0.038-0.289-0.038h-0.251l0.019 0.082c0.022 0.086 0.032 0.098 0.203 0.285 0.054 0.060 0.101 0.133 0.101 0.159s0.029 0.070 0.063 0.098c0.035 0.032 0.063 0.073 0.063 0.092 0 0.022 0.063 0.067 0.143 0.105s0.143 0.082 0.143 0.098c0 0.019 0.041 0.032 0.092 0.032s0.114 0.022 0.14 0.048c0.038 0.035 0.181 0.051 0.647 0.067 0.631 0.022 0.679 0.035 0.898 0.203 0.060 0.048 0.155 0.108 0.209 0.136s0.149 0.101 0.209 0.162c0.155 0.155 0.428 0.241 0.764 0.241 0.159 0 0.323-0.019 0.403-0.048 0.178-0.063 0.447-0.060 0.65 0.006 0.124 0.041 0.19 0.089 0.282 0.209 0.105 0.13 0.124 0.181 0.136 0.349 0.019 0.27-0.038 1.034-0.082 1.078-0.054 0.054-0.044 0.565 0.013 0.679 0.029 0.060 0.054 0.241 0.067 0.488 0.013 0.216 0.035 0.415 0.048 0.447 0.016 0.029 0.038 0.149 0.048 0.273 0.016 0.178 0.038 0.238 0.108 0.32 0.051 0.054 0.098 0.155 0.111 0.222 0.025 0.149 0.178 0.32 0.368 0.412 0.082 0.038 0.155 0.098 0.165 0.13 0.009 0.041 0.044 0.063 0.095 0.063 0.044 0 0.086 0.022 0.098 0.048 0.009 0.025 0.035 0.048 0.054 0.048 0.063 0 0.187 0.143 0.187 0.219 0 0.073-0.13 0.225-0.193 0.225-0.016 0-0.038 0.022-0.048 0.048-0.013 0.032-0.063 0.048-0.152 0.048-0.092 0-0.149 0.019-0.187 0.063s-0.092 0.063-0.187 0.063c-0.143 0.003-0.45 0.095-0.511 0.155-0.019 0.019-0.070 0.035-0.114 0.035-0.041 0-0.102 0.019-0.127 0.044-0.029 0.025-0.12 0.060-0.209 0.079-0.251 0.051-0.501 0.127-0.536 0.162-0.016 0.016-0.076 0.032-0.13 0.032-0.057 0-0.133 0.029-0.174 0.063s-0.117 0.063-0.178 0.063c-0.057 0-0.143 0.022-0.193 0.048-0.048 0.025-0.155 0.054-0.238 0.063-0.086 0.013-0.152 0.032-0.152 0.044 0 0.016-0.070 0.035-0.155 0.048-0.086 0.009-0.171 0.041-0.193 0.067s-0.073 0.048-0.114 0.048c-0.041 0-0.152 0.041-0.247 0.092-0.095 0.054-0.225 0.105-0.295 0.117-0.067 0.009-0.133 0.032-0.152 0.044-0.038 0.032-0.412 0.159-0.466 0.159-0.022 0.003-0.098 0.029-0.168 0.063s-0.171 0.060-0.228 0.063c-0.054 0-0.105 0.016-0.111 0.038-0.006 0.019-0.076 0.054-0.155 0.073-0.197 0.057-0.355 0.12-0.403 0.168-0.022 0.019-0.098 0.038-0.165 0.038-0.070 0-0.133 0.019-0.149 0.044-0.025 0.041-0.381 0.178-0.466 0.178-0.022 0-0.060 0.022-0.082 0.048s-0.089 0.048-0.152 0.048c-0.060 0-0.14 0.022-0.168 0.051-0.032 0.029-0.111 0.063-0.178 0.079-0.238 0.051-0.422 0.111-0.46 0.149-0.022 0.022-0.092 0.038-0.155 0.038-0.067 0-0.13 0.016-0.143 0.035-0.035 0.060-0.298 0.155-0.482 0.174-0.101 0.013-0.209 0.038-0.244 0.060-0.035 0.019-0.127 0.048-0.203 0.057s-0.149 0.035-0.162 0.054c-0.013 0.019-0.086 0.044-0.162 0.054s-0.152 0.029-0.171 0.041c-0.016 0.016-0.086 0.035-0.152 0.048-0.063 0.013-0.13 0.041-0.143 0.063-0.013 0.019-0.114 0.048-0.225 0.060-0.114 0.009-0.228 0.041-0.257 0.067-0.070 0.063-0.406 0.063-0.495 0.003-0.035-0.025-0.12-0.057-0.19-0.067-0.067-0.013-0.143-0.041-0.168-0.060-0.057-0.044-0.663-0.048-0.695 0-0.013 0.019-0.111 0.044-0.222 0.054-0.108 0.013-0.228 0.041-0.27 0.067-0.048 0.029-0.232 0.051-0.593 0.067-0.285 0.009-0.536 0.032-0.555 0.044-0.016 0.016-0.067 0.038-0.111 0.051-0.041 0.013-0.095 0.041-0.117 0.060s-0.060 0.051-0.082 0.073c-0.025 0.019-0.152 0.048-0.279 0.060s-0.254 0.041-0.276 0.067c-0.022 0.022-0.063 0.041-0.086 0.041s-0.067 0.022-0.095 0.051c-0.025 0.029-0.108 0.057-0.181 0.067-0.070 0.013-0.203 0.067-0.292 0.127-0.089 0.057-0.184 0.105-0.212 0.105s-0.070 0.022-0.092 0.048c-0.022 0.025-0.070 0.048-0.105 0.048s-0.089 0.022-0.12 0.051c-0.029 0.025-0.149 0.082-0.266 0.124s-0.228 0.089-0.247 0.108c-0.019 0.019-0.067 0.035-0.108 0.035-0.038 0-0.086 0.029-0.105 0.063s-0.051 0.063-0.067 0.063c-0.019 0-0.098 0.041-0.178 0.095-0.086 0.060-0.181 0.095-0.247 0.095-0.060 0-0.117 0.016-0.13 0.035-0.010 0.019-0.067 0.054-0.121 0.079s-0.124 0.060-0.152 0.076c-0.032 0.019-0.076 0.041-0.101 0.054-0.108 0.057-0.517 0.346-0.577 0.409-0.035 0.038-0.108 0.089-0.159 0.111-0.051 0.025-0.095 0.076-0.101 0.114-0.006 0.041-0.041 0.076-0.086 0.086-0.041 0.009-0.114 0.057-0.159 0.102-0.079 0.079-0.079 0.082-0.016 0.098 0.044 0.013 0.063 0.044 0.063 0.108 0 0.048 0.022 0.102 0.051 0.117 0.048 0.025 0.048 0.035 0 0.108-0.041 0.063-0.051 0.143-0.044 0.346 0.010 0.241 0.016 0.266 0.079 0.282 0.117 0.029 0.212 0.187 0.232 0.377 0.016 0.165 0.022 0.174 0.117 0.2 0.054 0.013 0.155 0.082 0.219 0.152 0.067 0.070 0.14 0.127 0.162 0.127 0.060 0 0.263 0.209 0.263 0.27 0 0.054 0.051 0.063 0.079 0.016 0.010-0.019 0.108-0.032 0.216-0.032 0.263 0 0.434-0.032 0.434-0.079 0-0.022 0.038-0.067 0.082-0.098s0.111-0.086 0.146-0.117c0.079-0.063 0.102-0.067 0.159-0.013 0.022 0.022 0.067 0.051 0.095 0.063 0.032 0.009 0.057 0.048 0.057 0.082 0 0.089 0.035 0.165 0.067 0.143 0.016-0.009 0.029-0.051 0.029-0.092s0.022-0.095 0.048-0.124c0.025-0.025 0.048-0.070 0.048-0.095 0-0.029 0.029-0.076 0.063-0.105 0.035-0.032 0.063-0.079 0.063-0.108s0.029-0.082 0.063-0.124c0.035-0.041 0.063-0.082 0.063-0.092 0-0.013 0.057-0.044 0.127-0.076 0.070-0.029 0.2-0.127 0.285-0.212 0.086-0.089 0.187-0.159 0.222-0.159s0.073-0.019 0.082-0.044c0.010-0.025 0.044-0.051 0.079-0.060 0.032-0.009 0.060-0.038 0.060-0.060 0-0.054 0.092-0.105 0.279-0.152 0.073-0.019 0.133-0.048 0.133-0.063 0-0.019 0.019-0.032 0.041-0.032 0.025 0 0.070-0.029 0.101-0.063s0.098-0.063 0.146-0.063c0.048 0 0.095-0.013 0.105-0.029 0.010-0.013 0.086-0.035 0.171-0.048 0.114-0.016 0.178-0.044 0.247-0.117 0.108-0.114 0.32-0.219 0.447-0.219 0.048 0 0.127-0.019 0.171-0.044 0.044-0.022 0.178-0.054 0.295-0.063 0.114-0.013 0.209-0.038 0.209-0.051 0-0.092 0.425-0.603 0.501-0.603 0.016 0 0.038-0.022 0.051-0.048 0.010-0.025 0.073-0.057 0.143-0.067 0.073-0.013 0.146-0.041 0.165-0.063 0.019-0.025 0.073-0.044 0.12-0.044 0.060 0 0.101-0.029 0.14-0.092 0.044-0.073 0.086-0.098 0.193-0.114 0.12-0.019 0.143-0.035 0.159-0.114 0.010-0.051 0.038-0.092 0.063-0.092s0.057-0.029 0.067-0.063c0.010-0.035 0.032-0.063 0.048-0.063s0.035-0.044 0.048-0.095c0.013-0.054 0.032-0.095 0.048-0.095 0.013 0 0.035-0.038 0.048-0.086 0.025-0.102 0.14-0.232 0.209-0.232 0.029 0 0.082-0.029 0.124-0.063s0.117-0.063 0.178-0.063c0.057 0 0.124-0.019 0.146-0.041 0.022-0.025 0.127-0.054 0.232-0.067 0.101-0.013 0.197-0.032 0.206-0.048 0.009-0.013 0.082-0.035 0.165-0.048 0.079-0.013 0.165-0.044 0.184-0.067 0.022-0.025 0.073-0.048 0.111-0.048s0.12-0.019 0.178-0.044c0.060-0.022 0.174-0.054 0.257-0.063 0.082-0.013 0.159-0.035 0.168-0.051 0.009-0.013 0.076-0.035 0.152-0.048 0.073-0.013 0.155-0.041 0.181-0.063s0.098-0.048 0.159-0.060c0.060-0.009 0.197-0.063 0.298-0.114 0.101-0.054 0.232-0.095 0.289-0.095 0.060 0 0.111-0.019 0.12-0.044s0.073-0.057 0.14-0.067c0.067-0.013 0.149-0.032 0.184-0.048s0.111-0.038 0.171-0.051c0.060-0.009 0.13-0.041 0.155-0.063 0.022-0.025 0.098-0.044 0.168-0.044 0.082 0 0.133-0.016 0.143-0.048 0.009-0.025 0.070-0.054 0.133-0.067 0.067-0.009 0.162-0.038 0.219-0.063 0.054-0.025 0.111-0.044 0.13-0.044 0.016 0 0.048-0.022 0.070-0.048s0.089-0.048 0.149-0.048c0.063 0 0.146-0.029 0.19-0.063 0.054-0.041 0.13-0.063 0.216-0.063 0.082 0 0.152-0.019 0.174-0.048 0.022-0.025 0.073-0.048 0.111-0.048s0.089-0.022 0.111-0.048c0.022-0.025 0.089-0.048 0.149-0.048 0.063 0 0.146-0.029 0.19-0.063s0.114-0.063 0.152-0.063c0.038 0 0.124-0.022 0.184-0.048 0.063-0.025 0.155-0.048 0.206-0.048 0.048 0 0.117-0.022 0.152-0.048 0.032-0.025 0.092-0.048 0.13-0.048s0.092-0.022 0.12-0.051c0.029-0.032 0.105-0.067 0.168-0.079 0.457-0.102 0.561-0.13 0.577-0.152 0.009-0.013 0.076-0.035 0.146-0.044 0.073-0.013 0.171-0.044 0.222-0.070s0.136-0.048 0.19-0.048c0.111 0 0.476-0.108 0.539-0.162 0.022-0.019 0.117-0.041 0.212-0.051 0.12-0.013 0.171-0.032 0.162-0.057s0.038-0.044 0.149-0.057c0.092-0.013 0.181-0.035 0.2-0.054 0.016-0.016 0.060-0.032 0.098-0.032 0.035 0 0.117-0.029 0.184-0.063 0.063-0.035 0.14-0.063 0.168-0.063 0.025 0 0.070-0.022 0.095-0.048 0.057-0.057 0.238-0.063 0.292-0.009 0.022 0.022 0.038 0.108 0.038 0.19 0 0.136-0.009 0.159-0.082 0.184-0.044 0.019-0.133 0.076-0.197 0.127-0.063 0.054-0.133 0.095-0.152 0.095s-0.054 0.022-0.076 0.048c-0.022 0.025-0.086 0.054-0.146 0.067-0.060 0.009-0.108 0.038-0.108 0.060 0 0.048-0.143 0.127-0.289 0.159-0.057 0.013-0.133 0.054-0.168 0.095-0.038 0.038-0.117 0.092-0.178 0.117s-0.219 0.155-0.352 0.289c-0.149 0.149-0.27 0.244-0.308 0.244s-0.082 0.029-0.102 0.063c-0.019 0.035-0.067 0.063-0.105 0.063-0.041 0-0.089 0.016-0.108 0.035-0.022 0.022-0.244 0.044-0.546 0.057-0.333 0.013-0.523 0.035-0.549 0.060-0.022 0.022-0.124 0.038-0.244 0.038-0.143 0-0.222 0.016-0.26 0.051-0.032 0.029-0.117 0.057-0.193 0.063-0.181 0.022-0.565 0.14-0.565 0.174 0 0.016-0.022 0.029-0.048 0.029-0.029 0-0.057 0.019-0.067 0.044s-0.067 0.054-0.124 0.063c-0.146 0.029-0.396 0.143-0.396 0.178 0 0.019-0.029 0.032-0.060 0.032-0.092 0-0.162 0.035-0.162 0.079 0 0.022-0.038 0.051-0.086 0.063-0.114 0.025-0.377 0.232-0.517 0.396-0.057 0.070-0.127 0.127-0.149 0.127-0.025 0-0.108 0.063-0.187 0.14-0.079 0.079-0.222 0.193-0.317 0.257s-0.19 0.143-0.213 0.178c-0.025 0.041-0.073 0.060-0.143 0.060-0.079 0-0.111 0.016-0.124 0.063s-0.035 0.057-0.089 0.044c-0.105-0.025-0.206 0.038-0.206 0.13 0 0.063 0.016 0.079 0.076 0.079 0.044 0 0.146 0.044 0.228 0.102 0.13 0.089 0.159 0.095 0.247 0.063 0.054-0.016 0.181-0.041 0.279-0.054 0.098-0.009 0.197-0.041 0.219-0.067s0.092-0.044 0.174-0.044c0.073 0 0.146-0.016 0.155-0.032 0.013-0.019 0.082-0.063 0.159-0.098 0.12-0.057 0.178-0.063 0.419-0.044 0.691 0.048 1.066 0.016 1.129-0.098 0.013-0.025 0.038-0.044 0.054-0.044 0.019 0 0.060-0.029 0.095-0.063s0.105-0.063 0.155-0.063c0.054 0 0.101-0.013 0.111-0.029 0.009-0.013 0.187-0.035 0.396-0.044 0.254-0.009 0.415-0.032 0.482-0.067 0.057-0.029 0.168-0.051 0.251-0.051 0.108 0 0.165-0.016 0.206-0.063 0.044-0.048 0.098-0.063 0.216-0.063 0.159 0 0.428-0.063 0.609-0.143 0.054-0.025 0.171-0.048 0.266-0.057 0.092-0.006 0.181-0.032 0.193-0.054s0.108-0.054 0.209-0.067c0.098-0.013 0.19-0.038 0.2-0.054s0.114-0.041 0.232-0.051c0.117-0.013 0.222-0.038 0.232-0.054 0.025-0.038 1.516-0.038 1.554 0 0.019 0.019 0.219 0.041 0.444 0.054 0.228 0.013 0.431 0.038 0.457 0.057 0.060 0.048 0.869 0.044 0.926 0 0.025-0.019 0.111-0.048 0.197-0.057 0.082-0.013 0.149-0.035 0.149-0.048 0-0.016 0.051-0.038 0.111-0.048 0.060-0.013 0.111-0.035 0.111-0.051s0.048-0.041 0.105-0.060c0.102-0.035 0.308-0.232 0.308-0.292 0-0.016 0.035-0.044 0.079-0.060s0.095-0.067 0.111-0.111c0.016-0.044 0.051-0.079 0.079-0.079 0.025 0 0.048-0.025 0.048-0.057 0-0.082 0.168-0.26 0.247-0.26 0.048 0 0.070-0.025 0.086-0.095 0.013-0.054 0.035-0.095 0.048-0.095 0.016 0 0.063-0.057 0.102-0.127 0.041-0.070 0.086-0.127 0.102-0.127 0.048 0 0.273-0.254 0.273-0.304 0-0.022 0.044-0.067 0.102-0.095s0.146-0.098 0.203-0.152c0.174-0.174 0.304-0.273 0.381-0.292 0.041-0.009 0.076-0.029 0.076-0.041 0-0.025 0.285-0.149 0.422-0.181 0.048-0.009 0.086-0.032 0.086-0.044 0-0.016 0.048-0.038 0.105-0.048 0.054-0.013 0.117-0.035 0.133-0.048 0.029-0.025 0.19-0.070 0.587-0.165 0.079-0.019 0.171-0.054 0.206-0.076 0.035-0.025 0.124-0.044 0.203-0.044 0.082 0 0.162-0.019 0.193-0.048s0.111-0.060 0.178-0.070c0.070-0.009 0.136-0.038 0.149-0.063 0.013-0.022 0.044-0.041 0.067-0.041 0.025 0 0.051-0.022 0.063-0.048 0.009-0.032 0.060-0.048 0.146-0.048 0.108 0 0.127-0.009 0.127-0.063 0-0.079 0.124-0.254 0.181-0.254 0.022 0 0.041-0.022 0.041-0.048s0.035-0.067 0.076-0.095c0.041-0.025 0.098-0.105 0.13-0.174s0.067-0.127 0.079-0.127c0.013 0 0.032-0.060 0.041-0.136 0.009-0.073 0.063-0.216 0.114-0.314 0.054-0.102 0.098-0.219 0.098-0.26 0-0.044 0.016-0.089 0.035-0.098 0.016-0.013 0.067-0.098 0.111-0.193 0.057-0.13 0.073-0.2 0.057-0.282-0.009-0.060-0.032-0.111-0.044-0.111s-0.032-0.044-0.041-0.095c-0.013-0.057-0.041-0.095-0.070-0.095-0.038 0-0.048-0.041-0.048-0.184 0-0.102 0.016-0.2 0.038-0.222s0.127-0.038 0.247-0.038c0.136 0 0.232-0.016 0.273-0.048 0.038-0.029 0.136-0.044 0.27-0.048 0.168 0 0.219-0.013 0.266-0.063 0.041-0.044 0.098-0.063 0.193-0.063 0.159 0 0.327-0.067 0.504-0.206 0.165-0.127 0.336-0.206 0.45-0.206 0.048 0 0.127-0.019 0.171-0.044 0.044-0.022 0.168-0.054 0.27-0.067 0.124-0.016 0.2-0.041 0.225-0.079 0.048-0.067 0.178-0.111 0.4-0.143 0.082-0.009 0.149-0.032 0.149-0.048 0-0.013 0.060-0.035 0.136-0.048 0.073-0.013 0.155-0.041 0.181-0.063 0.044-0.038 0.178-0.079 0.476-0.149 0.079-0.019 0.171-0.054 0.206-0.076 0.035-0.025 0.12-0.044 0.193-0.044 0.079 0 0.149-0.019 0.171-0.048 0.022-0.025 0.057-0.048 0.076-0.048s0.076-0.022 0.124-0.048c0.048-0.025 0.136-0.054 0.197-0.067 0.060-0.009 0.124-0.038 0.146-0.063 0.019-0.025 0.073-0.044 0.117-0.044 0.041 0 0.095-0.022 0.114-0.051 0.025-0.032 0.12-0.057 0.273-0.076 0.282-0.032 0.504-0.089 0.574-0.146 0.025-0.025 0.098-0.044 0.155-0.044s0.13-0.019 0.155-0.044c0.029-0.022 0.13-0.057 0.225-0.076 0.304-0.060 0.504-0.117 0.545-0.159 0.019-0.019 0.114-0.038 0.206-0.038 0.133 0 0.174-0.013 0.206-0.063 0.025-0.038 0.076-0.063 0.127-0.063 0.212 0 0.32-0.124 0.304-0.352l-0.010-0.14-0.219-0.009c-0.149-0.006-0.254 0.006-0.317 0.038-0.162 0.076-0.419 0.146-0.555 0.146-0.073 0-0.146 0.022-0.178 0.054-0.029 0.029-0.124 0.057-0.216 0.067-0.092 0.006-0.187 0.035-0.216 0.060-0.032 0.025-0.133 0.054-0.232 0.063s-0.193 0.038-0.212 0.060c-0.019 0.025-0.089 0.044-0.155 0.044s-0.136 0.022-0.159 0.048c-0.022 0.025-0.070 0.048-0.108 0.048s-0.086 0.016-0.105 0.035c-0.044 0.044-0.324 0.14-0.488 0.168-0.067 0.013-0.133 0.041-0.155 0.067s-0.089 0.048-0.152 0.048c-0.060 0-0.127 0.019-0.146 0.044-0.019 0.022-0.098 0.060-0.178 0.079-0.079 0.022-0.2 0.054-0.27 0.073s-0.149 0.054-0.178 0.076c-0.025 0.025-0.114 0.044-0.19 0.044-0.102 0-0.155 0.019-0.197 0.063-0.029 0.035-0.092 0.063-0.143 0.063-0.048 0-0.102 0.013-0.117 0.029-0.019 0.016-0.086 0.044-0.149 0.067-0.067 0.019-0.12 0.051-0.12 0.067s-0.060 0.029-0.136 0.029c-0.073 0-0.187 0.029-0.254 0.063-0.063 0.035-0.168 0.063-0.228 0.063-0.063 0-0.165 0.022-0.228 0.048-0.060 0.025-0.149 0.048-0.197 0.048-0.044 0-0.12 0.019-0.165 0.041-0.044 0.025-0.14 0.054-0.216 0.067-0.076 0.009-0.159 0.041-0.184 0.067-0.067 0.070-0.84 0.070-0.91 0-0.025-0.025-0.111-0.057-0.193-0.070-0.079-0.009-0.152-0.032-0.162-0.044-0.009-0.016-0.082-0.057-0.162-0.092-0.082-0.035-0.168-0.092-0.19-0.127-0.025-0.035-0.067-0.063-0.095-0.063-0.025 0-0.102-0.044-0.168-0.095-0.067-0.054-0.143-0.095-0.171-0.095-0.025 0-0.063-0.029-0.082-0.063s-0.057-0.063-0.082-0.063c-0.029 0-0.105-0.044-0.171-0.095-0.067-0.054-0.146-0.095-0.181-0.095-0.032 0-0.076-0.029-0.098-0.063s-0.060-0.063-0.089-0.063c-0.029 0-0.105-0.041-0.168-0.089-0.063-0.051-0.136-0.105-0.165-0.12-0.067-0.035-0.336-0.26-0.425-0.355-0.038-0.038-0.092-0.070-0.114-0.070-0.025 0-0.146-0.108-0.273-0.238-0.124-0.13-0.238-0.238-0.257-0.238-0.016 0-0.086-0.073-0.152-0.159-0.067-0.089-0.13-0.159-0.143-0.159s-0.057-0.054-0.095-0.12c-0.041-0.063-0.143-0.187-0.225-0.273-0.089-0.089-0.152-0.181-0.152-0.222 0-0.044-0.060-0.12-0.159-0.206-0.102-0.089-0.159-0.162-0.159-0.206 0-0.041-0.038-0.105-0.082-0.149-0.044-0.041-0.124-0.162-0.174-0.266-0.086-0.181-0.171-0.311-0.441-0.669-0.070-0.092-0.133-0.206-0.146-0.254-0.022-0.086-0.108-0.228-0.193-0.323-0.022-0.022-0.041-0.070-0.041-0.105 0-0.032-0.019-0.060-0.044-0.060-0.048 0-0.178-0.184-0.178-0.251 0-0.022-0.022-0.060-0.048-0.086-0.025-0.029-0.048-0.076-0.048-0.111s-0.022-0.086-0.048-0.111c-0.029-0.032-0.048-0.108-0.048-0.2 0-0.098 0.016-0.168 0.048-0.193 0.025-0.022 0.048-0.060 0.048-0.089s0.032-0.098 0.073-0.155l0.070-0.105h0.323c0.228 0 0.336 0.013 0.365 0.041 0.095 0.098 0.469 0.101 0.469 0.006 0-0.022 0.025-0.051 0.057-0.063 0.051-0.019 0.051-0.022 0-0.051-0.032-0.019-0.057-0.044-0.057-0.060 0-0.019-0.029-0.060-0.063-0.095-0.057-0.057-0.063-0.105-0.063-0.428s0.006-0.371 0.063-0.428c0.073-0.073 0.082-0.174 0.019-0.213-0.022-0.013-0.067-0.079-0.095-0.143-0.051-0.108-0.054-0.12-0.003-0.197 0.086-0.127 0.257-0.114 0.406 0.029 0.073 0.070 0.146 0.111 0.2 0.111h0.086l-0.022-0.216c-0.035-0.349-0.184-0.641-0.327-0.641-0.025 0-0.067-0.051-0.092-0.111s-0.060-0.111-0.076-0.111c-0.019 0-0.032-0.019-0.032-0.044s-0.029-0.057-0.063-0.067c-0.102-0.032-0.089-0.251 0.025-0.349 0.098-0.086 0.273-0.105 0.352-0.035 0.029 0.022 0.114 0.060 0.193 0.079 0.079 0.022 0.2 0.054 0.27 0.073s0.149 0.054 0.178 0.076c0.025 0.025 0.073 0.044 0.098 0.044 0.029 0 0.111 0.051 0.184 0.111s0.165 0.111 0.203 0.111c0.038 0 0.098 0.022 0.133 0.048 0.086 0.063 0.095 0.060 0.171-0.063l0.070-0.111-0.073-0.146c-0.070-0.146-0.469-0.584-0.533-0.584-0.016 0-0.044-0.019-0.057-0.041s-0.063-0.057-0.111-0.076c-0.051-0.022-0.089-0.054-0.089-0.073 0-0.016-0.022-0.032-0.048-0.032-0.029 0-0.057-0.022-0.067-0.048-0.013-0.025-0.051-0.048-0.089-0.048-0.035 0-0.098-0.035-0.14-0.079-0.070-0.073-0.244-0.143-0.358-0.143-0.025 0-0.076-0.022-0.111-0.048-0.032-0.025-0.086-0.048-0.117-0.048-0.035 0-0.098-0.019-0.143-0.044-0.048-0.025-0.111-0.054-0.14-0.063-0.035-0.010-0.057-0.048-0.057-0.095 0-0.044-0.022-0.092-0.051-0.108-0.054-0.029-0.149-0.282-0.187-0.498-0.013-0.070-0.032-0.143-0.048-0.159-0.013-0.019-0.035-0.067-0.048-0.111-0.013-0.041-0.044-0.095-0.067-0.12-0.025-0.022-0.044-0.073-0.044-0.108 0-0.060-0.111-0.273-0.162-0.311-0.009-0.010-0.032-0.051-0.044-0.092-0.013-0.044-0.035-0.092-0.051-0.111-0.13-0.155-0.155-0.193-0.171-0.241-0.009-0.032-0.038-0.067-0.063-0.076s-0.048-0.038-0.048-0.067c0-0.025-0.013-0.048-0.032-0.048-0.041 0-0.285-0.244-0.285-0.282 0-0.016-0.029-0.041-0.063-0.051s-0.063-0.038-0.063-0.060c0-0.044-0.086-0.14-0.19-0.209s-0.317-0.282-0.317-0.314c0-0.032-0.076-0.067-0.146-0.067-0.025 0-0.117-0.073-0.206-0.159-0.089-0.089-0.187-0.159-0.219-0.159s-0.067-0.025-0.076-0.057c-0.009-0.032-0.082-0.082-0.162-0.114-0.079-0.035-0.159-0.079-0.178-0.105-0.041-0.048-0.365-0.057-0.393-0.010zM22.993 12.527c0.035 0.035 0.063 0.079 0.063 0.098s0.048 0.092 0.108 0.165c0.057 0.073 0.13 0.181 0.159 0.235 0.029 0.057 0.063 0.105 0.079 0.105 0.032 0 0.289 0.333 0.289 0.374 0 0.016 0.029 0.054 0.063 0.086 0.051 0.044 0.063 0.092 0.057 0.187-0.009 0.111-0.022 0.133-0.086 0.14-0.048 0.006-0.089-0.009-0.105-0.038s-0.051-0.051-0.073-0.051c-0.025 0-0.048-0.022-0.048-0.048 0-0.029-0.025-0.060-0.054-0.070-0.032-0.013-0.070-0.038-0.082-0.063-0.013-0.022-0.060-0.041-0.102-0.041-0.044 0-0.082-0.022-0.095-0.060-0.009-0.035-0.038-0.070-0.063-0.079s-0.048-0.038-0.048-0.060c0-0.025-0.048-0.095-0.102-0.159-0.171-0.19-0.184-0.209-0.247-0.349-0.095-0.203-0.079-0.371 0.032-0.371 0.035 0 0.070-0.016 0.079-0.032 0.032-0.051 0.105-0.038 0.174 0.032zM21.801 14.338c0.051 0.041 0.146 0.13 0.216 0.193 0.067 0.067 0.162 0.14 0.209 0.165s0.117 0.079 0.155 0.12c0.095 0.101 0.13 0.127 0.295 0.213 0.076 0.041 0.162 0.101 0.184 0.133 0.029 0.041 0.079 0.060 0.159 0.060 0.086 0 0.146 0.029 0.225 0.095 0.057 0.054 0.14 0.095 0.178 0.095s0.108 0.029 0.152 0.063c0.044 0.035 0.108 0.063 0.143 0.063 0.038 0 0.073 0.013 0.082 0.029 0.035 0.054 0.276 0.162 0.365 0.162 0.051 0 0.127 0.029 0.171 0.063s0.105 0.063 0.136 0.063c0.029 0 0.079 0.019 0.105 0.041 0.029 0.022 0.159 0.073 0.289 0.114 0.13 0.038 0.26 0.086 0.285 0.102s0.073 0.038 0.105 0.048c0.029 0.013 0.054 0.032 0.054 0.048s0.038 0.048 0.089 0.067c0.222 0.092 0.355 0.159 0.355 0.184 0 0.013 0.067 0.032 0.146 0.041 0.082 0.006 0.155 0.029 0.168 0.044 0.016 0.022 0.136 0.079 0.377 0.171 0.038 0.016 0.070 0.041 0.070 0.060 0 0.016 0.025 0.032 0.060 0.032 0.032 0 0.092 0.025 0.133 0.057s0.102 0.067 0.133 0.079c0.029 0.013 0.067 0.054 0.086 0.098 0.016 0.041 0.044 0.086 0.060 0.098 0.019 0.009 0.035 0.079 0.035 0.152 0 0.159-0.114 0.308-0.238 0.308-0.041 0-0.082 0.013-0.092 0.029s-0.095 0.038-0.19 0.048c-0.095 0.013-0.19 0.044-0.212 0.070-0.019 0.025-0.076 0.044-0.124 0.044-0.051 0-0.095 0.022-0.108 0.048-0.013 0.035-0.070 0.048-0.235 0.048-0.159 0-0.232-0.013-0.26-0.048-0.025-0.032-0.098-0.048-0.225-0.048-0.12 0-0.2-0.016-0.232-0.048-0.025-0.025-0.067-0.048-0.089-0.048-0.079 0-0.565-0.165-0.565-0.193 0-0.016-0.048-0.029-0.102-0.029-0.057 0-0.143-0.019-0.187-0.044-0.048-0.022-0.225-0.054-0.396-0.067-0.263-0.016-0.441-0.054-0.663-0.133-0.016-0.006-0.095-0.044-0.171-0.089-0.079-0.044-0.235-0.095-0.349-0.111-0.228-0.038-0.479-0.12-0.479-0.162 0-0.013-0.044-0.035-0.102-0.044-0.127-0.029-0.438-0.333-0.438-0.428 0-0.041-0.025-0.076-0.057-0.086-0.076-0.019-0.133-0.155-0.168-0.412-0.016-0.117-0.044-0.228-0.060-0.244-0.019-0.019-0.032-0.238-0.032-0.498 0-0.374 0.009-0.473 0.048-0.504 0.032-0.025 0.048-0.095 0.048-0.193 0-0.111 0.016-0.162 0.057-0.187 0.086-0.054 0.298-0.019 0.4 0.067z"></path>
    </symbol>
  </defs> 
</svg>