<svg width="69" height="66" viewBox="0 0 69 66" fill="none" xmlns="http://www.w3.org/2000/svg">
<path d="M35.4771 1.87591C37.1093 -0.949417 41.0377 -0.474706 42.2322 2.5704C43.5435 5.91324 45.0331 9.91933 45.9997 13.1678C46.845 16.0084 47.9551 21.1704 47.9551 21.1704C47.9551 21.1704 56.4529 22.2691 61.5108 24.5048C63.0291 25.1759 64.7935 26.1352 66.4092 27.0742C69.1868 28.6886 69.8913 32.4113 67.7358 34.821C66.7305 35.9447 65.628 37.049 64.5757 37.8425C60.9931 40.5442 54.1472 42.5447 54.1472 42.5447C54.1472 42.5447 56.5228 48.1433 57.7319 51.8471C58.349 53.7374 58.9413 55.9891 59.4665 58.2057C60.4941 62.5421 56.3404 66.026 52.4676 63.9607C50.474 62.8974 48.5041 61.7144 46.9774 60.5166C43.4715 57.7662 39.482 54.5147 39.482 54.5147C39.482 54.5147 35.7226 58.6901 31.6604 61.517C29.4075 63.0848 26.1165 64.5272 23.0809 65.6665C19.3985 67.0485 15.7857 63.9386 16.3102 59.9682C16.6864 57.12 17.1486 54.0838 17.647 51.8471C18.6265 47.4511 21.2318 42.5447 21.2318 42.5447L13.0845 37.8425C13.0845 37.8425 -0.928802 28.5061 0.0488781 24.5048C1.02656 20.5035 17.3473 18.5029 29.7051 18.5029C29.7051 18.5029 31.5524 9.95746 34.2676 4.16482C34.6141 3.42561 35.0314 2.64752 35.4771 1.87591Z" fill="#F1A818"/>
</svg>
