<svg width="100" height="100" viewBox="0 0 100 100" fill="none" xmlns="http://www.w3.org/2000/svg">
<path fill-rule="evenodd" clip-rule="evenodd" d="M50 0.478027C22.3875 0.478027 0 22.5884 0 49.859C0 77.1296 22.3875 99.2399 50 99.2399C77.6125 99.2399 100 77.1296 100 49.859C100 22.5884 77.6125 0.478027 50 0.478027ZM50 8.70819C72.975 8.70819 91.6667 27.1684 91.6667 49.859C91.6667 72.5495 72.975 91.0098 50 91.0098C27.025 91.0098 8.33333 72.5495 8.33333 49.859C8.33333 27.1684 27.025 8.70819 50 8.70819ZM61.2167 69.9776C61.8875 70.4508 62.75 70.5661 63.5208 70.278C64.2917 69.99 64.8625 69.3398 65.0292 68.5497C66.8417 60.1467 71.2333 38.8758 72.8792 31.2341C73.0042 30.658 72.8 30.0613 72.3417 29.6745C71.8833 29.2918 71.2458 29.1807 70.6792 29.3865C61.9458 32.5798 35.0417 42.5465 24.0458 46.5669C23.3458 46.8221 22.8917 47.4846 22.9167 48.213C22.9417 48.9413 23.4375 49.5709 24.15 49.7808C29.0833 51.2375 35.5583 53.2663 35.5583 53.2663C35.5583 53.2663 38.5792 62.2906 40.1583 66.879C40.3542 67.451 40.8125 67.9077 41.4125 68.06C42.0167 68.2164 42.6542 68.0559 43.1042 67.6361C45.6375 65.2741 49.5542 61.624 49.5542 61.624C49.5542 61.624 56.9958 67.0106 61.2167 69.9776ZM38.2792 52.1264L41.7792 63.521L42.5542 56.3032C42.5542 56.3032 56.0667 44.2666 63.7708 37.4026C64 37.2051 64.0292 36.8677 63.8417 36.629C63.6542 36.3944 63.3167 36.3368 63.0583 36.4973C54.1292 42.1268 38.2792 52.1264 38.2792 52.1264Z" fill="#14017D"/>
</svg>
