<!-- Generated by IcoMoon.io -->
<svg version="1.1" xmlns="http://www.w3.org/2000/svg" width="32" height="32" viewBox="0 0 32 32">
<title>facebook</title>
<path d="M16 2.787c7.352 0 13.333 5.907 13.333 13.168s-5.981 13.168-13.333 13.168-13.333-5.907-13.333-13.168c0-7.261 5.981-13.168 13.333-13.168zM16 0.153c-8.836 0-16 7.075-16 15.802s7.164 15.802 16 15.802c8.836 0 16-7.075 16-15.802s-7.164-15.802-16-15.802zM13.333 13.321h-2.667v2.634h2.667v7.901h4v-7.901h2.427l0.24-2.634h-2.667v-1.097c0-0.629 0.128-0.878 0.744-0.878h1.923v-3.292h-3.205c-2.397 0-3.461 1.043-3.461 3.039v2.228z"></path>
</svg>
