<!-- Generated by IcoMoon.io -->
<svg version="1.1" xmlns="http://www.w3.org/2000/svg" width="32" height="32" viewBox="0 0 32 32">
<title>Instagram</title>
<path d="M16 2.787c7.352 0 13.333 5.907 13.333 13.168s-5.981 13.168-13.333 13.168-13.333-5.907-13.333-13.168c0-7.261 5.981-13.168 13.333-13.168zM16 0.153c-8.836 0-16 7.075-16 15.802s7.164 15.802 16 15.802c8.836 0 16-7.075 16-15.802s-7.164-15.802-16-15.802zM16 9.479c2.136 0 2.389 0.008 3.233 0.046 2.169 0.097 3.18 1.113 3.28 3.238 0.037 0.834 0.045 1.082 0.045 3.192s-0.008 2.36-0.045 3.192c-0.1 2.124-1.109 3.142-3.28 3.239-0.844 0.037-1.096 0.046-3.233 0.046-2.136 0-2.389-0.008-3.232-0.046-2.173-0.099-3.18-1.118-3.28-3.239-0.037-0.832-0.047-1.082-0.047-3.192s0.009-2.36 0.047-3.192c0.099-2.127 1.109-3.142 3.28-3.239 0.843-0.038 1.096-0.045 3.232-0.045zM16 8.054c-2.173 0-2.444 0.009-3.299 0.049-2.907 0.132-4.52 1.724-4.653 4.594-0.039 0.844-0.048 1.113-0.048 3.258 0 2.146 0.009 2.415 0.048 3.258 0.133 2.869 1.747 4.464 4.653 4.596 0.855 0.038 1.125 0.047 3.299 0.047s2.445-0.009 3.3-0.047c2.901-0.132 4.521-1.724 4.652-4.596 0.039-0.843 0.048-1.111 0.048-3.258 0-2.145-0.009-2.414-0.048-3.258-0.131-2.867-1.745-4.464-4.652-4.594-0.855-0.040-1.127-0.049-3.3-0.049zM16 11.898c-2.268 0-4.108 1.816-4.108 4.057s1.84 4.057 4.108 4.057c2.268 0 4.108-1.816 4.108-4.057 0-2.24-1.84-4.057-4.108-4.057zM16 18.589c-1.473 0-2.667-1.179-2.667-2.634 0-1.454 1.193-2.634 2.667-2.634 1.472 0 2.668 1.179 2.668 2.634s-1.196 2.634-2.668 2.634zM20.269 10.79c-0.529 0-0.96 0.424-0.96 0.948 0 0.523 0.429 0.948 0.96 0.948s0.961-0.424 0.961-0.948-0.429-0.948-0.961-0.948z"></path>
</svg>
