<!-- Generated by IcoMoon.io -->
<svg version="1.1" xmlns="http://www.w3.org/2000/svg" width="32" height="32" viewBox="0 0 32 32">
<title>telegram-5</title>
<path d="M16 0.153c-8.836 0-16 7.075-16 15.802s7.164 15.802 16 15.802c8.836 0 16-7.075 16-15.802s-7.164-15.802-16-15.802zM16 2.787c7.352 0 13.333 5.907 13.333 13.168s-5.981 13.168-13.333 13.168-13.333-5.907-13.333-13.168c0-7.261 5.981-13.168 13.333-13.168zM19.589 22.393c0.215 0.151 0.491 0.188 0.737 0.096s0.429-0.3 0.483-0.553c0.58-2.689 1.985-9.496 2.512-11.941 0.040-0.184-0.025-0.375-0.172-0.499-0.147-0.122-0.351-0.158-0.532-0.092-2.795 1.022-11.404 4.211-14.923 5.498-0.224 0.082-0.369 0.294-0.361 0.527s0.167 0.435 0.395 0.502c1.579 0.466 3.651 1.115 3.651 1.115s0.967 2.888 1.472 4.356c0.063 0.183 0.209 0.329 0.401 0.378 0.193 0.050 0.397-0.001 0.541-0.136 0.811-0.756 2.064-1.924 2.064-1.924s2.381 1.724 3.732 2.673zM12.249 16.68l1.12 3.646 0.248-2.31c0 0 4.324-3.852 6.789-6.048 0.073-0.063 0.083-0.171 0.023-0.248-0.060-0.075-0.168-0.094-0.251-0.042-2.857 1.801-7.929 5.001-7.929 5.001z"></path>
</svg>
